<svg width="30" height="30" viewBox="0 0 30 30" fill="none" xmlns="http://www.w3.org/2000/svg">
<g clip-path="url(#clip0_309_566)">
<path d="M26.9416 4.99999C26.828 4.98828 26.7135 4.98828 26.6 4.99999H3.26662C3.11707 5.00229 2.96852 5.02472 2.82495 5.06666L14.8666 17.0583L26.9416 4.99999Z" fill="#4A4B4F"/>
<path d="M28.1749 6.15845L16.0416 18.2418C15.7293 18.5522 15.3069 18.7264 14.8666 18.7264C14.4263 18.7264 14.0039 18.5522 13.6916 18.2418L1.66661 6.25011C1.62964 6.38598 1.61004 6.52599 1.60828 6.66678V23.3334C1.60828 23.7755 1.78387 24.1994 2.09643 24.512C2.40899 24.8245 2.83292 25.0001 3.27494 25.0001H26.6083C27.0503 25.0001 27.4742 24.8245 27.7868 24.512C28.0993 24.1994 28.2749 23.7755 28.2749 23.3334V6.66678C28.2683 6.49316 28.2346 6.32164 28.1749 6.15845ZM4.41661 23.3334H3.25828V22.1418L9.31661 16.1334L10.4916 17.3084L4.41661 23.3334ZM26.5916 23.3334H25.4249L19.3499 17.3084L20.5249 16.1334L26.5833 22.1418L26.5916 23.3334Z" fill="#4A4B4F"/>
</g>
<defs>
<clipPath id="clip0_309_566">
<rect width="30" height="30" fill="white"/>
</clipPath>
</defs>
</svg>
