<svg width="105" height="73" viewBox="0 0 105 73" fill="none" xmlns="http://www.w3.org/2000/svg">
<g clip-path="url(#clip0_59_102)">
<path d="M31.5 15.8303C33.8196 15.8303 35.7 14.3565 35.7 12.5385C35.7 10.7204 33.8196 9.24658 31.5 9.24658C29.1805 9.24658 27.3 10.7204 27.3 12.5385C27.3 14.3565 29.1805 15.8303 31.5 15.8303Z" fill="white" fill-opacity="0.2"/>
<path d="M31.5 29.0642C33.8196 29.0642 35.7 27.5904 35.7 25.7723C35.7 23.9543 33.8196 22.4805 31.5 22.4805C29.1805 22.4805 27.3 23.9543 27.3 25.7723C27.3 27.5904 29.1805 29.0642 31.5 29.0642Z" fill="white" fill-opacity="0.2"/>
<path d="M31.5 42.2986C33.8196 42.2986 35.7 40.8248 35.7 39.0067C35.7 37.1887 33.8196 35.7148 31.5 35.7148C29.1805 35.7148 27.3 37.1887 27.3 39.0067C27.3 40.8248 29.1805 42.2986 31.5 42.2986Z" fill="white" fill-opacity="0.2"/>
<path d="M31.5 55.532C33.8196 55.532 35.7 54.0582 35.7 52.2401C35.7 50.4221 33.8196 48.9482 31.5 48.9482C29.1805 48.9482 27.3 50.4221 27.3 52.2401C27.3 54.0582 29.1805 55.532 31.5 55.532Z" fill="white" fill-opacity="0.2"/>
<path d="M31.5 68.7659C33.8196 68.7659 35.7 67.2921 35.7 65.474C35.7 63.656 33.8196 62.1821 31.5 62.1821C29.1805 62.1821 27.3 63.656 27.3 65.474C27.3 67.2921 29.1805 68.7659 31.5 68.7659Z" fill="white" fill-opacity="0.2"/>
<path d="M45.5 15.8303C47.8196 15.8303 49.7 14.3565 49.7 12.5385C49.7 10.7204 47.8196 9.24658 45.5 9.24658C43.1805 9.24658 41.3 10.7204 41.3 12.5385C41.3 14.3565 43.1805 15.8303 45.5 15.8303Z" fill="white" fill-opacity="0.2"/>
<path d="M45.5 29.0642C47.8196 29.0642 49.7 27.5904 49.7 25.7723C49.7 23.9543 47.8196 22.4805 45.5 22.4805C43.1805 22.4805 41.3 23.9543 41.3 25.7723C41.3 27.5904 43.1805 29.0642 45.5 29.0642Z" fill="white" fill-opacity="0.2"/>
<path d="M45.5 42.2986C47.8196 42.2986 49.7 40.8248 49.7 39.0067C49.7 37.1887 47.8196 35.7148 45.5 35.7148C43.1805 35.7148 41.3 37.1887 41.3 39.0067C41.3 40.8248 43.1805 42.2986 45.5 42.2986Z" fill="white" fill-opacity="0.2"/>
<path d="M45.5 55.532C47.8196 55.532 49.7 54.0582 49.7 52.2401C49.7 50.4221 47.8196 48.9482 45.5 48.9482C43.1805 48.9482 41.3 50.4221 41.3 52.2401C41.3 54.0582 43.1805 55.532 45.5 55.532Z" fill="white" fill-opacity="0.2"/>
<path d="M45.5 68.7659C47.8196 68.7659 49.7 67.2921 49.7 65.474C49.7 63.656 47.8196 62.1821 45.5 62.1821C43.1805 62.1821 41.3 63.656 41.3 65.474C41.3 67.2921 43.1805 68.7659 45.5 68.7659Z" fill="white" fill-opacity="0.2"/>
<path d="M59.4931 15.8303C61.8127 15.8303 63.6931 14.3565 63.6931 12.5385C63.6931 10.7204 61.8127 9.24658 59.4931 9.24658C57.1735 9.24658 55.2931 10.7204 55.2931 12.5385C55.2931 14.3565 57.1735 15.8303 59.4931 15.8303Z" fill="white" fill-opacity="0.2"/>
<path d="M59.4931 29.0642C61.8127 29.0642 63.6931 27.5904 63.6931 25.7723C63.6931 23.9543 61.8127 22.4805 59.4931 22.4805C57.1735 22.4805 55.2931 23.9543 55.2931 25.7723C55.2931 27.5904 57.1735 29.0642 59.4931 29.0642Z" fill="white" fill-opacity="0.2"/>
<path d="M59.4931 42.2986C61.8127 42.2986 63.6931 40.8248 63.6931 39.0067C63.6931 37.1887 61.8127 35.7148 59.4931 35.7148C57.1735 35.7148 55.2931 37.1887 55.2931 39.0067C55.2931 40.8248 57.1735 42.2986 59.4931 42.2986Z" fill="white" fill-opacity="0.2"/>
<path d="M59.4931 55.532C61.8127 55.532 63.6931 54.0582 63.6931 52.2401C63.6931 50.4221 61.8127 48.9482 59.4931 48.9482C57.1735 48.9482 55.2931 50.4221 55.2931 52.2401C55.2931 54.0582 57.1735 55.532 59.4931 55.532Z" fill="white" fill-opacity="0.2"/>
<path d="M59.4931 68.7659C61.8127 68.7659 63.6931 67.2921 63.6931 65.474C63.6931 63.656 61.8127 62.1821 59.4931 62.1821C57.1735 62.1821 55.2931 63.656 55.2931 65.474C55.2931 67.2921 57.1735 68.7659 59.4931 68.7659Z" fill="white" fill-opacity="0.2"/>
<path d="M73.4931 15.8303C75.8127 15.8303 77.6931 14.3565 77.6931 12.5385C77.6931 10.7204 75.8127 9.24658 73.4931 9.24658C71.1735 9.24658 69.2931 10.7204 69.2931 12.5385C69.2931 14.3565 71.1735 15.8303 73.4931 15.8303Z" fill="white" fill-opacity="0.2"/>
<path d="M73.4931 29.0642C75.8127 29.0642 77.6931 27.5904 77.6931 25.7723C77.6931 23.9543 75.8127 22.4805 73.4931 22.4805C71.1735 22.4805 69.2931 23.9543 69.2931 25.7723C69.2931 27.5904 71.1735 29.0642 73.4931 29.0642Z" fill="white" fill-opacity="0.2"/>
<path d="M73.4931 42.2986C75.8127 42.2986 77.6931 40.8248 77.6931 39.0067C77.6931 37.1887 75.8127 35.7148 73.4931 35.7148C71.1735 35.7148 69.2931 37.1887 69.2931 39.0067C69.2931 40.8248 71.1735 42.2986 73.4931 42.2986Z" fill="white" fill-opacity="0.2"/>
<path d="M73.4931 55.532C75.8127 55.532 77.6931 54.0582 77.6931 52.2401C77.6931 50.4221 75.8127 48.9482 73.4931 48.9482C71.1735 48.9482 69.2931 50.4221 69.2931 52.2401C69.2931 54.0582 71.1735 55.532 73.4931 55.532Z" fill="white" fill-opacity="0.2"/>
<path d="M73.4931 68.7659C75.8127 68.7659 77.6931 67.2921 77.6931 65.474C77.6931 63.656 75.8127 62.1821 73.4931 62.1821C71.1735 62.1821 69.2931 63.656 69.2931 65.474C69.2931 67.2921 71.1735 68.7659 73.4931 68.7659Z" fill="white" fill-opacity="0.2"/>
</g>
<defs>
<clipPath id="clip0_59_102">
<rect width="105" height="73" fill="white"/>
</clipPath>
</defs>
</svg>
