<svg width="24" height="24" viewBox="0 0 24 24" fill="none" xmlns="http://www.w3.org/2000/svg">
<path d="M10.4821 19.5001C10.0845 19.5 9.70325 19.3421 9.42205 19.0611L4.83605 14.4751C4.18082 13.8181 3.81287 12.928 3.81287 12.0001C3.81287 11.0722 4.18082 10.1822 4.83605 9.52513L9.42205 4.93913C9.70345 4.65786 10.085 4.49991 10.4829 4.5C10.8808 4.50009 11.2623 4.65823 11.5436 4.93963C11.8248 5.22102 11.9828 5.60262 11.9827 6.00048C11.9826 6.39834 11.8244 6.77986 11.5431 7.06113L6.95705 11.6461C6.91049 11.6926 6.87355 11.7477 6.84834 11.8085C6.82313 11.8692 6.81016 11.9344 6.81016 12.0001C6.81016 12.0659 6.82313 12.131 6.84834 12.1918C6.87355 12.2525 6.91049 12.3077 6.95705 12.3541L11.5431 16.9391C11.753 17.1489 11.8959 17.4162 11.9539 17.7073C12.0118 17.9984 11.9821 18.3001 11.8685 18.5742C11.7549 18.8484 11.5626 19.0827 11.3158 19.2476C11.069 19.4124 10.7788 19.5003 10.4821 19.5001Z" fill="#A9A9A9"/>
<path d="M17.4821 19.5001C17.0845 19.5 16.7033 19.3421 16.4221 19.0611L10.4221 13.0611C10.2827 12.9218 10.1721 12.7564 10.0967 12.5744C10.0213 12.3923 9.98242 12.1972 9.98242 12.0001C9.98242 11.8031 10.0213 11.6079 10.0967 11.4259C10.1721 11.2438 10.2827 11.0784 10.4221 10.9391L16.4221 4.93913C16.5614 4.79986 16.7268 4.6894 16.9088 4.61405C17.0909 4.53871 17.2859 4.49995 17.4829 4.5C17.6799 4.50005 17.875 4.53889 18.057 4.61433C18.239 4.68976 18.4043 4.80029 18.5436 4.93963C18.6829 5.07896 18.7933 5.24436 18.8687 5.42638C18.944 5.6084 18.9828 5.80348 18.9827 6.00048C18.9827 6.19748 18.9438 6.39254 18.8684 6.57453C18.793 6.75651 18.6824 6.92186 18.5431 7.06113L13.6001 12.0001L18.5391 16.9391C18.7488 17.1487 18.8917 17.4156 18.9497 17.7063C19.0078 17.997 18.9784 18.2984 18.8653 18.5724C18.7522 18.8464 18.5605 19.0808 18.3143 19.2459C18.0681 19.411 17.7785 19.4995 17.4821 19.5001Z" fill="#A9A9A9"/>
</svg>
