<svg width="34" height="36" viewBox="0 0 34 36" fill="none" xmlns="http://www.w3.org/2000/svg">
<g clip-path="url(#clip0_59_84)">
<path d="M24.7728 23.2542C28.9847 20.9444 32.1777 19.1844 32.4529 19.0475C33.3333 18.5799 34.2426 17.3423 32.4529 16.381C31.8751 16.0786 28.7642 14.3734 24.7728 12.1743L19.2396 17.7553L24.7728 23.2541V23.2542Z" fill="#FFD900"/>
<path d="M19.2397 17.7554L1.62146 35.4896C2.035 35.5443 2.50187 35.4348 3.05231 35.1325C4.20794 34.5008 16.4587 27.819 24.7728 23.2555L19.2397 17.7554Z" fill="#F43249"/>
<path d="M19.2396 17.7552L24.7728 12.2017C24.7728 12.2017 4.29141 1.03822 3.05222 0.37923C2.58535 0.103062 2.06216 0.0210285 1.59399 0.103062L19.2396 17.7552Z" fill="#00EE76"/>
<path d="M19.2396 17.7552L1.59404 0.103027C0.877899 0.268391 0.272705 0.900297 0.272705 2.19262V33.3998C0.272705 34.5826 0.741004 35.4346 1.62142 35.5167L19.2396 17.7552Z" fill="#00D3FF"/>
</g>
<defs>
<clipPath id="clip0_59_84">
<rect width="33.2182" height="35.5091" fill="white" transform="translate(0.272705 0.0727539)"/>
</clipPath>
</defs>
</svg>
