<svg width="35" height="36" viewBox="0 0 35 36" fill="none" xmlns="http://www.w3.org/2000/svg">
<g clip-path="url(#clip0_59_95)">
<path d="M7.90883 0.633301H27.0123C31.1237 0.633301 34.4565 4.01265 34.4565 8.1815V27.5518C34.4565 31.7206 31.1237 35.1 27.0123 35.1H7.90883C3.7974 35.1 0.4646 31.7206 0.4646 27.5518V8.1815C0.4646 4.01265 3.7974 0.633301 7.90883 0.633301Z" fill="url(#paint0_linear_59_95)"/>
<path d="M11.3583 25.65L11.3615 25.6511L10.1992 27.6922C9.775 28.4373 8.83544 28.6925 8.10063 28.2624C7.36595 27.8322 7.11407 26.8795 7.5383 26.1345L8.39447 24.6308L8.47666 24.4865C8.62339 24.2727 8.98548 23.9035 9.7098 23.973C9.7098 23.973 11.4143 24.1606 11.5377 25.0589C11.5377 25.0589 11.5544 25.3544 11.3583 25.65ZM27.8421 20.437H24.218C23.9711 20.4201 23.8635 20.3307 23.821 20.2788L23.8183 20.274L19.9388 13.4607L19.9338 13.4641L19.7012 13.1258C19.3198 12.5345 18.7143 14.0468 18.7143 14.0468C17.9913 15.7318 18.817 17.6476 19.1047 18.2266L24.4932 27.6902C24.9173 28.4351 25.8569 28.6905 26.5918 28.2602C27.3265 27.8301 27.5784 26.8774 27.154 26.1323L25.8067 23.7659C25.7805 23.7086 25.7351 23.553 26.0114 23.5523H27.8421C28.6906 23.5523 29.3784 22.8549 29.3784 21.9945C29.3784 21.1342 28.6906 20.4368 27.8421 20.4368V20.437ZM20.8029 22.5545C20.8029 22.5545 20.9963 23.5523 20.2478 23.5523H6.85036C6.00189 23.5523 5.31409 22.8549 5.31409 21.9945C5.31409 21.1342 6.00189 20.4368 6.85036 20.4368H10.2947C10.8508 20.4042 10.9825 20.0787 10.9825 20.0787L10.9857 20.0803L15.4817 12.1842L15.4803 12.1839C15.5623 12.0314 15.494 11.8872 15.4822 11.8644L13.9973 9.25669C13.5731 8.51176 13.8248 7.55894 14.5596 7.12892C15.2944 6.69876 16.234 6.95389 16.6582 7.69896L17.3468 8.90839L18.0342 7.70112C18.4585 6.95618 19.398 6.70078 20.1328 7.13107C20.8676 7.56123 21.1194 8.51378 20.6952 9.25885L14.4388 20.2464C14.4114 20.3134 14.4031 20.4184 14.6066 20.4368H18.3463L18.3471 20.4738C18.3471 20.4738 20.5085 20.5079 20.8029 22.5545Z" fill="white"/>
</g>
<defs>
<linearGradient id="paint0_linear_59_95" x1="17.4606" y1="0.633301" x2="17.4606" y2="35.1" gradientUnits="userSpaceOnUse">
<stop stop-color="#17C9FB"/>
<stop offset="1" stop-color="#1A74E8"/>
</linearGradient>
<clipPath id="clip0_59_95">
<rect width="33.9919" height="34.4667" fill="white" transform="translate(0.4646 0.633301)"/>
</clipPath>
</defs>
</svg>
